<?xml version="1.0" standalone="no"?>
<!DOCTYPE svg PUBLIC "-//W3C//DTD SVG 20010904//EN"
 "http://www.w3.org/TR/2001/REC-SVG-20010904/DTD/svg10.dtd">
<svg version="1.0" xmlns="http://www.w3.org/2000/svg"
 width="215.000000pt" height="215.000000pt" viewBox="0 0 215.000000 215.000000"
 preserveAspectRatio="xMidYMid meet">
<metadata>
Created by potrace 1.15, written by Peter Selinger 2001-2017
</metadata>
<g transform="translate(0.000000,215.000000) scale(0.100000,-0.100000)"
fill="#000000" stroke="none">
<path fill="rgb(89, 96, 109)" d="M263 2020 c-184 -43 -221 -304 -58 -405 41 -26 58 -30 114 -30 44 1
77 7 100 19 l34 18 164 -165 165 -164 -28 -44 c-57 -92 -71 -217 -33 -319 11
-30 22 -62 25 -70 3 -11 -39 -50 -134 -126 l-138 -111 -45 26 c-36 21 -56 26
-109 25 -71 -1 -117 -19 -157 -62 -69 -74 -82 -170 -37 -261 81 -161 310 -158
390 5 22 46 26 63 21 112 -3 31 -8 67 -12 78 -6 19 11 36 117 121 172 139 156
132 211 90 85 -64 187 -86 309 -63 l47 8 53 -106 52 -105 -26 -28 c-83 -89
-85 -223 -4 -311 79 -88 243 -88 322 0 62 68 78 176 36 255 -43 82 -142 133
-229 118 l-38 -6 -53 106 -53 107 53 51 c29 29 65 77 80 108 l27 56 83 -16 83
-17 7 -42 c21 -125 135 -208 257 -187 101 17 181 115 181 222 0 145 -139 251
-278 213 -47 -12 -115 -67 -137 -111 l-15 -27 -62 14 c-35 8 -73 16 -84 19
-18 4 -22 14 -26 72 -8 108 -79 227 -169 282 l-26 16 40 103 c35 88 43 101 60
96 34 -11 104 6 150 37 93 62 124 191 70 290 -84 155 -302 155 -386 0 -49 -89
-33 -195 39 -265 l37 -36 -39 -100 c-37 -95 -40 -99 -64 -92 -58 16 -165 5
-228 -23 -34 -15 -67 -34 -74 -42 -9 -12 -40 14 -179 153 l-168 167 20 38 c44
87 11 217 -71 274 -61 42 -115 52 -187 35z"/>
</g>
</svg>
